<svg xmlns="http://www.w3.org/2000/svg" viewBox="0 0 100 100" width="100" height="100">
  <rect width="100" height="100" rx="22" fill="#0a1322"/>
  <g fill="#3b82f6">
    <circle cx="22" cy="38" r="3.2" opacity="0.95"/>
    <circle cx="30" cy="33" r="3.0" opacity="0.9"/>
    <circle cx="39" cy="30" r="2.7" opacity="0.85"/>
    <circle cx="48" cy="29" r="2.3" opacity="0.75"/>
    <circle cx="57" cy="30" r="1.9" opacity="0.6"/>
    <circle cx="66" cy="33" r="1.6" opacity="0.5"/>
    <circle cx="74" cy="38" r="1.3" opacity="0.4"/>
    <circle cx="22" cy="62" r="3.2" opacity="0.95"/>
    <circle cx="30" cy="67" r="3.0" opacity="0.9"/>
    <circle cx="39" cy="70" r="2.7" opacity="0.85"/>
    <circle cx="48" cy="71" r="2.3" opacity="0.75"/>
    <circle cx="57" cy="70" r="1.9" opacity="0.6"/>
    <circle cx="66" cy="67" r="1.6" opacity="0.5"/>
    <circle cx="74" cy="62" r="1.3" opacity="0.4"/>
    <circle cx="26" cy="50" r="2.6" opacity="0.85"/>
    <circle cx="34" cy="45" r="2.2" opacity="0.7"/>
    <circle cx="34" cy="55" r="2.2" opacity="0.7"/>
    <circle cx="42" cy="50" r="1.8" opacity="0.55"/>
  </g>
  <circle cx="62" cy="50" r="7" fill="#3b82f6"/>
  <circle cx="59.8" cy="47.8" r="2.1" fill="#ffffff" opacity="0.75"/>
</svg>
